<?xml version="1.0" standalone="no"?>
<!DOCTYPE svg PUBLIC "-//W3C//DTD SVG 20010904//EN"
 "http://www.w3.org/TR/2001/REC-SVG-20010904/DTD/svg10.dtd">
<svg version="1.0" xmlns="http://www.w3.org/2000/svg"
 width="512.000000pt" height="512.000000pt" viewBox="0 0 512.000000 512.000000"
 preserveAspectRatio="xMidYMid meet">

<g transform="translate(0.000000,512.000000) scale(0.100000,-0.100000)"
fill="#054F7E" stroke="none">
<path d="M2193 5045 c-141 -22 -178 -40 -273 -135 -68 -69 -111 -101 -220
-164 -74 -43 -165 -101 -203 -128 -88 -65 -208 -196 -248 -271 -41 -77 -41
-139 0 -307 17 -68 31 -145 31 -170 0 -29 -18 -97 -46 -181 -74 -213 -72 -338
5 -419 47 -49 106 -68 161 -51 92 27 160 122 316 436 130 262 168 392 209 709
8 66 17 121 19 123 2 2 10 -20 17 -49 23 -87 17 -331 -10 -458 -28 -132 -91
-326 -146 -452 l-43 -97 19 -92 c11 -51 32 -116 49 -148 117 -219 351 -358
543 -323 34 6 93 27 130 46 l68 35 47 -29 c156 -97 338 -73 515 66 116 90 194
218 222 363 l17 83 -37 81 c-54 117 -122 329 -152 469 -20 94 -26 153 -26 253
-1 125 17 256 32 239 4 -5 13 -58 19 -119 16 -145 56 -338 93 -450 37 -109
215 -462 281 -556 57 -80 112 -125 169 -134 55 -9 124 26 164 83 29 42 30 48
30 150 0 102 -2 113 -47 242 -54 152 -56 178 -27 300 45 193 51 240 39 289
-15 62 -65 136 -158 233 -78 82 -190 162 -368 263 -81 46 -116 75 -213 178
-42 46 -115 74 -240 92 -123 19 -618 19 -738 0z m207 -835 c0 -16 -5 -63 -11
-105 -10 -65 -14 -75 -28 -68 -9 4 -35 7 -58 7 -50 1 -98 -38 -109 -87 l-6
-31 -43 46 c-89 94 -82 178 19 224 44 20 123 36 219 43 13 1 17 -7 17 -29z
m518 3 c149 -37 174 -139 62 -248 -33 -32 -40 -36 -40 -20 0 65 -84 119 -149
97 -17 -6 -33 -8 -35 -4 -8 14 -27 174 -22 187 6 17 93 11 184 -12z m-208
-454 c107 -22 131 -49 111 -127 -14 -51 -76 -108 -127 -118 -26 -5 -52 -2 -83
10 -42 15 -48 15 -91 0 -31 -11 -59 -15 -83 -10 -50 9 -112 69 -126 123 -17
61 -3 87 56 107 106 35 215 40 343 15z m-660 -368 c0 -28 -28 -47 -48 -34 -24
15 -27 44 -7 59 22 17 55 1 55 -25z m1068 -3 c2 -19 -2 -28 -18 -33 -24 -8
-50 10 -50 35 0 24 10 31 40 28 19 -2 26 -10 28 -30z m-863 -13 c0 -25 -4 -30
-24 -30 -28 0 -47 25 -38 49 5 12 16 16 34 14 24 -3 28 -8 28 -33z m650 0 c0
-27 -3 -30 -30 -30 -21 0 -31 5 -33 18 -6 33 6 49 35 45 24 -3 28 -8 28 -33z
m-766 -194 c13 -24 -8 -55 -34 -50 -28 6 -42 34 -26 53 18 22 48 20 60 -3z
m881 4 c20 -24 3 -57 -28 -53 -27 3 -39 26 -28 54 7 18 40 18 56 -1z m-659
-31 c9 -11 10 -20 2 -32 -15 -24 -44 -27 -59 -7 -28 38 27 75 57 39z m439 -5
c23 -41 -38 -68 -63 -27 -8 12 -7 21 2 32 19 22 48 20 61 -5z"/>
<path d="M1850 2886 c0 -7 -8 -16 -18 -18 -12 -3 -32 -45 -65 -138 -221 -615
-243 -1091 -81 -1752 84 -343 179 -585 297 -756 57 -83 103 -127 161 -153 38
-17 73 -19 421 -19 347 0 384 2 420 19 222 100 461 713 547 1401 16 134 16
458 0 575 -34 235 -93 469 -177 698 -32 87 -52 127 -60 123 -7 -2 -15 4 -18
16 -5 19 -7 19 -49 -7 -129 -80 -310 -145 -404 -145 -55 0 -179 24 -227 44
-34 15 -40 15 -68 1 -38 -20 -165 -45 -228 -45 -90 0 -268 64 -393 140 -55 34
-58 35 -58 16z m785 -2203 c36 -37 35 -100 -3 -136 -39 -37 -99 -38 -136 -1
-51 52 -31 144 37 162 44 11 72 4 102 -25z"/>
<path d="M1340 1399 c-141 -13 -238 -69 -285 -164 -17 -33 -20 -60 -19 -160 0
-101 5 -134 28 -210 28 -93 116 -286 179 -394 21 -34 37 -63 37 -64 0 -1 -91
-2 -202 -2 -172 0 -213 -3 -267 -19 -116 -35 -167 -112 -178 -268 l-6 -78 607
0 c333 0 606 2 606 4 0 13 -130 349 -176 453 -106 243 -144 421 -163 751 -4
78 -10 144 -12 146 -11 9 -82 11 -149 5z"/>
<path d="M3668 1402 l-38 -3 0 -87 c0 -102 -23 -324 -44 -436 -27 -137 -54
-223 -126 -390 -60 -140 -170 -426 -170 -441 0 -3 273 -5 606 -5 l607 0 -6 83
c-5 63 -14 97 -37 144 -58 117 -120 138 -407 138 -112 0 -203 2 -203 4 0 2 16
30 36 62 51 84 137 271 168 362 110 332 22 537 -241 562 -32 3 -69 7 -83 8
-14 2 -42 1 -62 -1z"/>
</g>
</svg>
