<?xml version="1.0" standalone="no"?>
<!DOCTYPE svg PUBLIC "-//W3C//DTD SVG 20010904//EN"
 "http://www.w3.org/TR/2001/REC-SVG-20010904/DTD/svg10.dtd">
<svg version="1.0" xmlns="http://www.w3.org/2000/svg"
 width="488.000000pt" height="360.000000pt" viewBox="0 0 488.000000 360.000000"
 preserveAspectRatio="xMidYMid meet">

<g transform="translate(0.000000,360.000000) scale(0.100000,-0.100000)"
fill="#ffffff" stroke="none">
<path d="M2106 2770 c-46 -14 -91 -51 -124 -99 -86 -128 -94 -330 -20 -478
102 -204 315 -171 395 61 25 72 25 251 0 322 -49 142 -155 224 -251 194z"/>
<path d="M2664 2757 c-58 -28 -103 -83 -136 -167 -30 -74 -32 -258 -5 -336 49
-141 151 -219 251 -193 63 17 138 99 165 181 80 240 -13 501 -189 532 -26 5
-49 0 -86 -17z"/>
<path d="M1585 2231 c-44 -27 -71 -60 -97 -116 -32 -70 -32 -224 1 -307 42
-109 147 -197 233 -198 140 -1 240 166 208 349 -21 123 -88 229 -171 272 -50
25 -134 25 -174 0z"/>
<path d="M3119 2230 c-183 -97 -234 -427 -87 -567 86 -82 196 -69 290 36 68
76 92 143 92 266 1 84 -3 108 -22 150 -26 56 -63 100 -104 121 -38 20 -126 17
-169 -6z"/>
<path d="M2259 1957 c-62 -18 -130 -59 -167 -101 -33 -37 -62 -118 -62 -170 0
-17 -7 -60 -15 -95 -9 -35 -13 -72 -10 -83 15 -44 121 -64 175 -32 39 23 56
59 69 139 13 87 29 142 41 150 13 8 12 -10 -4 -137 -9 -62 -22 -120 -33 -138
-24 -41 -87 -70 -150 -70 -69 0 -107 15 -138 56 -31 41 -41 42 -75 9 -14 -13
-57 -46 -95 -72 -114 -78 -137 -150 -85 -258 72 -149 286 -280 516 -315 88
-13 277 -17 375 -7 86 8 227 46 306 82 144 65 290 217 281 292 -3 31 -41 55
-116 74 -39 9 -43 13 -40 38 2 20 -8 40 -36 72 -21 24 -51 70 -67 102 -16 31
-32 57 -35 57 -3 0 -20 -11 -37 -24 -40 -30 -110 -39 -154 -21 -38 16 -47 8
-32 -32 6 -20 6 -38 0 -55 -12 -33 -2 -178 13 -179 6 -1 16 0 21 1 6 1 27 3
48 3 32 2 35 0 20 -11 -9 -6 -25 -10 -35 -6 -33 10 -41 -7 -15 -35 45 -47 87
-124 87 -157 0 -49 -41 -81 -135 -105 -35 -9 -52 -20 -66 -43 -10 -17 -19 -26
-19 -20 0 22 -82 103 -126 124 -34 17 -44 27 -39 39 23 58 37 143 42 254 5
113 9 132 30 165 42 63 67 76 164 82 48 3 91 8 95 13 4 4 -2 7 -13 7 -12 0
-31 9 -44 21 l-24 20 23 -11 c13 -6 39 -10 59 -8 30 2 41 10 56 36 19 31 19
34 2 46 -17 12 -16 13 5 12 17 -1 25 6 31 27 8 30 -10 57 -39 57 -32 0 -217
97 -247 130 -69 74 -200 107 -306 77z m486 -657 c12 -19 -15 -41 -36 -29 -31
16 -23 30 23 38 4 0 10 -4 13 -9z"/>
</g>
</svg>
