<?xml version="1.0" standalone="no"?>
<!DOCTYPE svg PUBLIC "-//W3C//DTD SVG 20010904//EN"
 "http://www.w3.org/TR/2001/REC-SVG-20010904/DTD/svg10.dtd">
<svg version="1.0" xmlns="http://www.w3.org/2000/svg"
 width="512.000000pt" height="512.000000pt" viewBox="0 0 512.000000 512.000000"
 preserveAspectRatio="xMidYMid meet">

<g transform="translate(0.000000,512.000000) scale(0.100000,-0.100000)"
fill="#526070" stroke="none">
<path d="M3943 5101 c-109 -37 -233 -141 -365 -305 -91 -112 -244 -341 -328
-490 -54 -94 -56 -97 -85 -91 -254 54 -500 67 -780 40 -99 -9 -243 -19 -321
-22 l-141 -6 -88 149 c-302 510 -508 714 -737 731 -70 5 -82 3 -132 -21 -64
-32 -109 -79 -163 -172 -58 -99 -108 -233 -153 -407 -92 -359 -147 -749 -210
-1502 -18 -219 -38 -397 -50 -455 -27 -121 -37 -343 -21 -465 44 -333 204
-678 468 -1014 99 -126 380 -405 517 -513 396 -316 855 -529 1191 -555 386
-29 1114 386 1599 911 314 341 503 653 587 966 32 120 31 298 -4 675 -15 165
-39 428 -53 585 -78 892 -177 1417 -321 1705 -116 231 -246 313 -410 256z
m-2754 -410 c47 -25 136 -120 203 -218 58 -87 218 -371 218 -388 0 -7 -9 -20
-21 -31 -33 -30 -52 -74 -46 -109 5 -31 1 -36 -101 -114 -59 -44 -124 -95
-144 -113 -37 -30 -38 -31 -57 -14 -26 24 -65 11 -136 -44 -54 -42 -189 -191
-259 -285 -22 -30 -41 -54 -42 -52 -3 3 53 577 71 722 46 368 105 571 185 639
38 31 76 33 129 7z m2866 0 c60 -36 119 -182 155 -384 35 -191 118 -938 108
-968 -2 -5 -32 30 -68 78 -82 112 -213 244 -267 272 -47 23 -75 26 -104 10
-17 -9 -29 -3 -77 39 -71 60 -192 152 -209 159 -9 4 -12 16 -7 39 7 36 -7 66
-54 116 l-24 27 52 98 c84 156 148 261 222 360 117 156 196 201 273 154z
m-1425 -1024 c13 -7 35 -28 48 -47 24 -34 24 -38 18 -186 -3 -83 -3 -153 0
-157 4 -4 23 6 43 22 62 49 206 140 256 161 56 24 103 26 132 5 12 -9 41 -52
64 -95 46 -88 86 -130 127 -130 50 0 247 -50 300 -76 64 -31 95 -74 117 -164
9 -36 31 -92 48 -125 32 -59 33 -60 157 -122 255 -127 395 -279 435 -470 37
-173 7 -315 -143 -678 -148 -360 -251 -566 -320 -638 -51 -54 -242 -222 -335
-295 -212 -167 -518 -343 -702 -404 -186 -61 -366 -75 -506 -39 -189 48 -469
191 -709 361 -210 149 -437 349 -492 435 -78 120 -281 564 -350 765 -94 275
-100 474 -20 644 57 120 165 210 340 282 51 22 113 55 139 74 39 30 50 47 73
110 57 158 124 261 193 296 19 10 74 19 147 24 145 9 167 20 217 110 50 89 73
120 105 136 62 32 123 9 298 -114 64 -45 119 -77 124 -72 4 4 3 56 -4 116 -18
159 -2 236 58 268 33 19 108 20 142 3z"/>
<path d="M1532 2784 c-39 -16 -71 -79 -72 -140 0 -95 108 -241 218 -292 77
-36 199 -37 285 -3 119 47 216 171 232 296 6 45 4 54 -24 93 -18 23 -43 48
-56 54 -22 10 -29 8 -51 -13 -14 -13 -44 -59 -67 -103 -57 -109 -105 -156
-156 -156 -95 0 -162 62 -185 171 -8 35 -47 91 -71 99 -12 5 -35 2 -53 -6z"/>
<path d="M2975 2778 c-40 -23 -46 -40 -42 -113 7 -135 89 -255 215 -313 78
-36 199 -37 285 -3 70 28 163 114 195 182 66 138 35 259 -66 259 -43 0 -77
-34 -92 -91 -29 -116 -84 -169 -185 -177 -47 -4 -54 -1 -82 27 -17 17 -48 70
-68 121 -21 49 -44 95 -51 101 -20 16 -86 21 -109 7z"/>
<path d="M2347 2349 c-84 -20 -159 -78 -173 -135 -30 -121 66 -294 221 -395
l62 -41 6 -66 c4 -35 4 -68 2 -72 -3 -4 -42 -13 -87 -19 -186 -27 -375 -91
-490 -167 -73 -49 -105 -85 -114 -133 -5 -26 -1 -36 29 -66 19 -19 42 -35 50
-35 8 0 66 25 128 55 244 117 430 160 659 152 206 -7 336 -46 526 -158 85 -50
87 -51 129 -39 24 7 53 23 66 36 90 96 -214 292 -540 348 -52 9 -109 16 -128
16 l-33 0 0 84 0 84 38 13 c56 18 103 51 155 109 159 176 127 388 -64 429 -59
13 -388 13 -442 0z"/>
</g>
</svg>
